<?xml version="1.0" encoding="UTF-8"?>
<svg id="Layer_1" data-name="Layer 1" xmlns="http://www.w3.org/2000/svg" viewBox="0 0 400 400">
  <path d="M346,359.44c0,25.7-20.39,40.56-59.46,40.56h-76.88v-148.66h72.63c37.16,0,56.28,15.5,56.28,38.65,0,14.87-7.65,26.33-19.75,32.7,16.56,5.31,27.18,18.05,27.18,36.74ZM243.85,277.25v35.04h34.19c16.78,0,25.91-5.95,25.91-17.63s-9.13-17.41-25.91-17.41h-34.19ZM311.38,355.83c0-12.53-9.56-18.48-27.4-18.48h-40.14v36.74h40.14c17.84,0,27.4-5.52,27.4-18.26Z" fill="#000" stroke-width="0"/>
  <polygon points="400 400 374 400 374 26 26 26 26 374 239.35 374 239.35 400 0 400 0 0 400 0 400 400" fill="#000" stroke-width="0"/>
</svg>